<svg xmlns="http://www.w3.org/2000/svg" viewBox="0 0 1075 195.5">
  <defs>
    <style>
      .cls-1 {
        fill-rule: evenodd;
      }
    </style>
  </defs>
  <path id="_VUE_CSV" data-name="  VUE CSV" class="cls-1" d="M175.762,90.811H128.829L63.174,221.064q-2.769,5.538-4.68,10.284t-3.1,8.569H54.341a43.74,43.74,0,0,0,.725-8.9q-0.068-4.81-.461-9.426L41.817,90.811H-1.821L22.437,279.863H69.371Zm177.451,0H310.235L286.241,202.08a98.41,98.41,0,0,1-6.592,21.028,47.31,47.31,0,0,1-9.1,13.645,30.358,30.358,0,0,1-11.6,7.383,42.341,42.341,0,0,1-13.975,2.241,34.9,34.9,0,0,1-12.063-2.044,27.723,27.723,0,0,1-9.756-6,26.951,26.951,0,0,1-6.46-9.822A36.737,36.737,0,0,1,214.39,215a72.753,72.753,0,0,1,1.187-11.865q1.186-6.987,2.636-13.975l21.358-98.349H196.592L175.5,188.9q-1.583,7.121-2.637,15.359a119.34,119.34,0,0,0-1.055,15.1,71.4,71.4,0,0,0,4.746,26.828,55.1,55.1,0,0,0,13.579,20.039,59.26,59.26,0,0,0,21.49,12.591,87.275,87.275,0,0,0,28.476,4.35q21.883,0,37.046-5.537a67.251,67.251,0,0,0,25.378-15.952,78.966,78.966,0,0,0,16.414-25.313,190.435,190.435,0,0,0,10.151-33.486Zm149.634,0h-108.9l-40.21,189.053H467.12l7.382-34.541H403.97l9.229-42.451h61.3l7.515-34.805H420.45l8.965-42.583h66.049ZM746.48,96.216q-4.221-1.449-9.69-2.966t-11.931-2.769Q718.4,89.23,711.28,88.438a133.738,133.738,0,0,0-14.766-.791,148.08,148.08,0,0,0-36.848,4.285,116.4,116.4,0,0,0-29.8,11.931,97.176,97.176,0,0,0-22.808,18.194,103.055,103.055,0,0,0-16.083,23.137,113.383,113.383,0,0,0-9.559,26.763,133.027,133.027,0,0,0-3.164,29.069,94.208,94.208,0,0,0,5.735,33.684,70.973,70.973,0,0,0,43.045,42.583q15.687,5.865,35.464,5.867a147.307,147.307,0,0,0,26.564-2.175,104.941,104.941,0,0,0,21.556-6.262l8.964-40.21q-4.615,2.373-9.689,4.482a102.311,102.311,0,0,1-10.745,3.757,95.863,95.863,0,0,1-12,2.637,88.092,88.092,0,0,1-13.579.989,62.332,62.332,0,0,1-20.7-3.23,43.474,43.474,0,0,1-15.82-9.492,41.678,41.678,0,0,1-10.151-15.491,58.708,58.708,0,0,1-3.56-21.226,82.03,82.03,0,0,1,4.614-27.553,66.989,66.989,0,0,1,13.58-22.94,65.4,65.4,0,0,1,22.082-15.754q13.117-5.865,30.256-5.867a82.337,82.337,0,0,1,13.645,1.055,93.363,93.363,0,0,1,11.668,2.7,77.56,77.56,0,0,1,9.954,3.757q4.548,2.111,8.5,4.219ZM883.853,97.93q-4.746-1.978-10.547-3.823t-12.392-3.3q-6.594-1.449-13.843-2.307a128.2,128.2,0,0,0-15.029-.857q-18.723,0-32.234,5.076T777.593,106.1a51.709,51.709,0,0,0-12.788,18.852,59.02,59.02,0,0,0-4.087,21.489,54.562,54.562,0,0,0,2.637,17.469,50.909,50.909,0,0,0,7.383,14.238,61.366,61.366,0,0,0,11.338,11.6,109.385,109.385,0,0,0,14.633,9.69q7.515,4.351,12.723,7.845a53.526,53.526,0,0,1,8.371,6.723,20.5,20.5,0,0,1,4.549,6.724,21.16,21.16,0,0,1,1.384,7.844,22.87,22.87,0,0,1-1.45,8.174,16.873,16.873,0,0,1-4.746,6.724,23.316,23.316,0,0,1-8.57,4.548,43.209,43.209,0,0,1-12.788,1.648,70.312,70.312,0,0,1-13.579-1.319,79.833,79.833,0,0,1-12.986-3.691,93.078,93.078,0,0,1-12-5.537,99.5,99.5,0,0,1-10.613-6.724l-7.251,37.442a100.646,100.646,0,0,0,10.943,4.878,132.694,132.694,0,0,0,13.381,4.284,128.885,128.885,0,0,0,15.161,3.033,118.175,118.175,0,0,0,16.414,1.12,108.624,108.624,0,0,0,26.3-2.834,75.92,75.92,0,0,0,19.314-7.449,52.143,52.143,0,0,0,21.753-23.269,56.306,56.306,0,0,0,4.285-12.986,62.758,62.758,0,0,0,1.252-11.865,53.217,53.217,0,0,0-2.5-16.875,47.661,47.661,0,0,0-7.383-13.909,70.681,70.681,0,0,0-11.8-12,153.288,153.288,0,0,0-15.886-11.14q-6.856-4.218-11.668-7.712a47.761,47.761,0,0,1-7.778-6.856,22.986,22.986,0,0,1-4.351-6.987,22.209,22.209,0,0,1-1.384-7.976,18.783,18.783,0,0,1,5.669-13.052,23.873,23.873,0,0,1,8.174-5.076,34.421,34.421,0,0,1,12.656-2.043,68.583,68.583,0,0,1,12.92,1.186,94.616,94.616,0,0,1,11.8,3.033,81.543,81.543,0,0,1,10.547,4.284q4.944,2.442,9.031,4.944Zm200.917-7.119h-46.93L972.183,221.064q-2.769,5.538-4.68,10.284t-3.1,8.569H963.35a43.79,43.79,0,0,0,.725-8.9q-0.068-4.81-.461-9.426L950.826,90.811H907.188l24.258,189.053h46.933Z" transform="translate(0 -87.656)"/>
</svg>
